<svg width="28" height="28" fill="none" xmlns="http://www.w3.org/2000/svg"><path d="M14 5.227a4.457 4.457 0 100 8.913 4.457 4.457 0 000-8.913zm0 7.357a2.901 2.901 0 112.901-2.9A2.901 2.901 0 0114 12.576v.007z" fill="#11216C"/><path d="M14 1.556a9.17 9.17 0 00-9.162 9.123c0 3.632 2.038 6.673 3.53 8.89l.273.404a77.474 77.474 0 004.776 6.223l.59.692.592-.692a77.619 77.619 0 004.775-6.223l.273-.412c1.485-2.216 3.523-5.25 3.523-8.882A9.17 9.17 0 0014 1.556zm4.348 17.11l-.28.413c-1.338 2.007-3.111 4.254-4.068 5.367-.918-1.113-2.73-3.36-4.068-5.367l-.272-.412c-1.377-2.054-3.267-4.861-3.267-8.02a7.607 7.607 0 0115.214 0c0 3.19-1.883 5.998-3.26 8.02z" fill="#11216C"/></svg>