<svg width="28" height="28" fill="none" xmlns="http://www.w3.org/2000/svg"><path d="M22.75 25.375h-.149C5.408 24.386 2.966 9.879 2.625 5.451A2.625 2.625 0 015.04 2.625h4.821a1.75 1.75 0 011.628 1.103L12.819 7a1.75 1.75 0 01-.385 1.89l-1.864 1.881a8.199 8.199 0 006.633 6.65L19.1 15.54a1.75 1.75 0 011.9-.359l3.299 1.322a1.75 1.75 0 011.076 1.627v4.62a2.625 2.625 0 01-2.625 2.625zm-17.5-21a.875.875 0 00-.875.875v.07c.403 5.18 2.984 17.43 18.323 18.305a.876.876 0 00.927-.823V18.13l-3.299-1.321-2.511 2.493-.42-.052c-7.612-.954-8.645-8.566-8.645-8.645l-.052-.42 2.484-2.511L9.87 4.375H5.25z" fill="#11216C"/></svg>