<svg width="100" height="100" fill="none" xmlns="http://www.w3.org/2000/svg"><g clip-path="url(#clip0)"><path d="M87.914 63.376l-.002-.005-.002-.004-12.023-27.871a6.623 6.623 0 00-1.913-2.548 8.816 8.816 0 00-5.497-1.93H39.176a1.023 1.023 0 00-.086 0h-5.24a1.099 1.099 0 000 2.197h3.924l-1.981 9.182a10.209 10.209 0 00-6.41-2.236c-1.505 0-2.966.325-4.292.934l2.039-4.728c.298-.69.74-1.282 1.28-1.714 0 0 .939-.654 1.454-.88a1.099 1.099 0 00-.887-2.011 8.769 8.769 0 00-1.937 1.175 6.636 6.636 0 00-1.928 2.56l-7.74 17.942a.996.996 0 00-.028.068l-4.254 9.86-.002.004-.002.005c-.06.142-.088.291-.086.438v3.98a1.744 1.744 0 002.938 1.269 10.537 10.537 0 017.26-2.883c2.966 0 5.814 1.256 7.814 3.444a1.746 1.746 0 002.574 0A10.61 10.61 0 0141.4 66.18c2.965 0 5.814 1.256 7.814 3.444a1.746 1.746 0 002.574 0A10.61 10.61 0 0159.6 66.18c2.966 0 5.815 1.256 7.815 3.444a1.746 1.746 0 002.574 0 10.53 10.53 0 015.384-3.165 1.099 1.099 0 00-.502-2.139 12.705 12.705 0 00-6.17 3.469 12.818 12.818 0 00-9.1-3.806 12.813 12.813 0 00-9.1 3.806 12.815 12.815 0 00-9.1-3.806 12.815 12.815 0 00-9.1 3.806 12.814 12.814 0 00-9.102-3.806c-2.933 0-5.737.992-8 2.813V64.2c4.337-5.014 12.133-4.813 16.246.292.015.012.239.331.695.397.411.058.79-.109 1.027-.41a10.54 10.54 0 018.233-3.934c3.04 0 5.904 1.163 8.267 3.972a1.001 1.001 0 00.132.13 1.1 1.1 0 001.47-.058l.047-.05a.804.804 0 00.039-.046l.002-.001a10.54 10.54 0 018.243-3.947c5.512 0 8.39 4.094 8.375 4.081.881.775 1.745-.276 1.564-.112 4.708-5.52 12.231-4.973 16.265-.314v2.595a12.683 12.683 0 00-6.109-2.673 1.099 1.099 0 00-.323 2.174 10.508 10.508 0 015.691 2.766A1.743 1.743 0 0088 67.793v-3.979a1.084 1.084 0 00-.086-.438zm-56.252-1.828c-4.053-3.591-9.995-4.224-14.715-1.573l2.358-5.468a9.375 9.375 0 016.933-3.036c2.674 0 5.178 1.103 6.94 3.044l-1.516 7.033zm2.061-9.556a11.558 11.558 0 00-7.485-2.719c-1.83 0-3.61.428-5.203 1.222l2.362-5.474a7.995 7.995 0 015.987-2.663c2.254 0 4.368.917 5.87 2.532l-1.531 7.102zm15.678 9.166a12.723 12.723 0 00-8.002-2.81c-2.648 0-5.177.806-7.29 2.277l1.303-6.043c1.766-1.982 4.296-3.111 7-3.111 2.699 0 5.224 1.124 6.99 3.097v6.59zm0-9.562a11.574 11.574 0 00-6.99-2.323 11.6 11.6 0 00-6.244 1.807l1.308-6.063a7.983 7.983 0 015.986-2.66c2.29 0 4.433.946 5.94 2.609v6.63zm0-9.553a10.228 10.228 0 00-5.94-1.882c-1.882 0-3.686.503-5.247 1.431l1.807-8.377h9.38v8.828zm19.076-8.828c1.517 0 2.942.5 4.122 1.446.535.43.975 1.019 1.27 1.705l2.04 4.73a10.292 10.292 0 00-4.294-.935c-2.368 0-4.616.798-6.407 2.236l-1.981-9.182h5.25zm-16.878 0h9.38l1.807 8.377a10.251 10.251 0 00-5.248-1.431c-2.167 0-4.232.668-5.94 1.882v-8.828zm0 11.75c1.507-1.662 3.65-2.607 5.939-2.607 2.313 0 4.477.965 5.987 2.66l1.308 6.062a11.601 11.601 0 00-6.247-1.807c-2.565 0-5.005.826-6.987 2.323v-6.63zm8 13.382a12.718 12.718 0 00-8 2.81v-6.589c1.765-1.973 4.29-3.097 6.988-3.097 2.704 0 5.235 1.129 7.001 3.111l1.303 6.044a12.73 12.73 0 00-7.292-2.279zm6.146-13.457a7.987 7.987 0 015.87-2.532c2.307 0 4.48.969 5.988 2.663l2.362 5.474a11.657 11.657 0 00-5.205-1.222c-2.782 0-5.418.973-7.483 2.72l-1.532-7.103zm3.593 16.658l-1.517-7.033c1.763-1.94 4.267-3.044 6.94-3.044a9.377 9.377 0 016.934 3.036l2.36 5.468c-4.635-2.602-10.582-2.091-14.717 1.573z" fill="#11216C"/></g><defs><clipPath id="clip0"><path fill="#fff" transform="translate(13 13)" d="M0 0h75v75H0z"/></clipPath></defs></svg>