<svg width="100" height="100" fill="none" xmlns="http://www.w3.org/2000/svg"><g clip-path="url(#clip0)" fill="#11216C"><path d="M69.899 18c-5.555 0-10.058 4.503-10.058 10.058v5.329H35.973v-5.33c0-4.052 3.302-7.355 7.355-7.355 4.053 0 7.356 3.303 7.356 7.356 0 .75.6 1.35 1.351 1.35.75 0 1.351-.6 1.351-1.35C53.386 22.503 48.883 18 43.328 18c-5.554 0-10.057 4.503-10.057 10.058v34.151c-.075.75.6 1.426 1.35 1.426.751 0 1.352-.6 1.352-1.35v-3.378h23.943v3.377c0 .75.6 1.351 1.351 1.351.75 0 1.351-.6 1.351-1.35V28.057c0-4.053 3.303-7.356 7.356-7.356s7.28 3.303 7.28 7.356c0 .75.6 1.35 1.352 1.35.75 0 1.35-.6 1.35-1.35C79.957 22.503 75.454 18 69.9 18zm-9.983 38.054H35.973v-4.803h23.943v4.803zm0-7.506H35.973v-4.803h23.943v4.803zm0-7.655H35.973v-4.804h23.943v4.804zM76.579 68.89c-.3-.676-1.126-1.052-1.801-.676-6.756 2.927-10.058 1.5-13.586 0-3.603-1.501-7.28-3.078-13.81 0-6.756 2.927-10.058 1.5-13.586 0-3.603-1.501-7.356-3.078-13.886 0-.675.3-.975 1.126-.675 1.801.3.675 1.126.976 1.801.675 5.48-2.551 8.332-1.35 11.634.076 2.177.9 4.504 1.876 7.581 1.876 2.252 0 4.879-.525 8.181-1.951 5.48-2.552 8.332-1.352 11.634.075 2.177.9 4.504 1.876 7.581 1.876 2.252 0 4.879-.525 8.181-1.951.676-.3 1.051-1.126.75-1.802zm-.075 10.357c-.3-.675-1.126-1.05-1.801-.675-6.756 2.927-10.058 1.5-13.586 0-3.603-1.502-7.28-3.078-13.81 0-6.756 2.927-10.058 1.5-13.586 0-3.603-1.502-7.28-3.078-13.886 0-.675.3-.975 1.126-.675 1.801.375.675 1.2.976 1.876.675 5.48-2.552 8.332-1.35 11.634.076 2.177.9 4.504 1.876 7.581 1.876 2.252 0 4.879-.525 8.181-1.951 5.48-2.553 8.332-1.352 11.634.075 2.177.9 4.504 1.876 7.581 1.876 2.252 0 4.879-.525 8.181-1.951.676-.3 1.051-1.126.676-1.802z"/></g><defs><clipPath id="clip0"><path fill="#fff" transform="translate(17 18)" d="M0 0h65v65H0z"/></clipPath></defs></svg>