<svg width="100" height="100" fill="none" xmlns="http://www.w3.org/2000/svg"><path clip-rule="evenodd" d="M8.215 51.528l41.265 3.118s1.623-1.56 3.901-3.143c3.16-2.197 7.533-4.714 10.134-5.831 4.438-1.916 12.09-4.74 16.388-5.808 4.298-1.08 11.466-2.148 11.466-2.148L58.432 20s-14.766 4.493-26.597 11.43c-5.878 3.45-11.875 7.931-16.334 11.884C10.966 47.317 8 50.754 8 50.754l.215.774z" stroke="#11216C" stroke-width="1.5"/><path d="M68.447 25.39s-11.133 1.62-24.512 8.766c-8.08 4.321-16.549 11.798-23.545 18.293" stroke="#11216C" stroke-width="1.5"/><path d="M55.39 25.328c-.14-.393.592-1.24.935-1.227.344.036 2.504 1.252-2.557 1.313-5.062.05-39.428 3.278-39.428 3.278L12.632 80.87l2.396-.025 1.805-52.288" stroke="#11216C" stroke-width="1.5"/><path d="M79.989 31.602s-10.521-.405-23.9 6.752c-8.081 4.31-13.873 8.717-20.869 15.212" stroke="#11216C" stroke-width="1.5"/><path d="M69.79 32.62c-.15-.38.58-1.251.925-1.215.343.025 2.504 1.228-2.547 1.29-5.072.06-39.439 3.29-39.439 3.29l-1.708 43.498 2.471-.025 1.763-43.596" stroke="#11216C" stroke-width="1.5"/><path d="M82.74 38.858c-.14-.393.59-1.24.934-1.228.344.037 2.504 1.252-2.557 1.301-5.062.05-39.428 3.29-39.428 3.29L39.98 78.096l2.408.037 1.762-36.021m5.244-18.932l28.768 17.163M34.747 29.797L65.61 44.8m-45.52-5.304L55.1 50.35" stroke="#11216C" stroke-width="1.5"/></svg>