<svg width="100" height="100" fill="none" xmlns="http://www.w3.org/2000/svg"><g clip-path="url(#clip0)" fill="#11216C"><path d="M82.663 41.227c-5.89-2.883-17.614-3.978-24.175-4.313v-1.838h1.355c.985 0 1.787-.801 1.787-1.786v-2.595a1.055 1.055 0 10-2.11 0v2.272H40.48v-9.465h7.046a1.055 1.055 0 100-2.11h-3.904v-1.32a1.055 1.055 0 10-2.11 0v1.32h-1.354a1.79 1.79 0 00-1.787 1.787V33.29c0 .985.801 1.787 1.787 1.787h1.355v1.837C35.39 37.227 14 38.83 14 44.99v23.134c0 1.414 1.123 2.68 3.337 3.763 5.462 2.674 16.005 3.795 22.04 4.189l-.778 1.429c-.757 1.392.189 3.1 1.767 3.196 6.245.38 12.88.379 19.231-.027 1.592-.102 2.536-1.824 1.775-3.223l-.748-1.375C66.424 75.697 86 73.99 86 68.124V44.99c0-1.413-1.123-2.68-3.337-3.763zm-24.175-2.201c16.69.863 25.403 4.046 25.403 5.964 0 .74-1.964 2.544-9.395 4.082a70.85 70.85 0 01-2.904.538c.646-.554.967-1.164.967-1.838 0-3.701-10.273-4.817-14.07-5.15v-3.596zm-14.866-3.95h12.757v1.745a170.529 170.529 0 00-12.757 0v-1.744zm0 3.855a168.62 168.62 0 0112.757 0v3.532a103.66 103.66 0 00-12.757 0V38.93zm-1.055 7.114c.583 0 1.055-.473 1.055-1.055v-.412c4.153-.27 8.595-.27 12.756 0v.412a1.055 1.055 0 102.11 0v-.25c2.213.2 4.264.478 6.058.828 4.428.864 5.752 1.88 5.897 2.205-.145.324-1.469 1.34-5.897 2.204-8.142 1.589-20.939 1.591-29.092 0-4.428-.864-5.752-1.88-5.898-2.204.145-.325 1.47-1.34 5.898-2.205 1.794-.35 3.845-.628 6.058-.827v.249c0 .582.472 1.055 1.055 1.055zM16.11 44.989c.002-.74 1.968-2.544 9.394-4.081 4.486-.929 9.996-1.571 16.008-1.882v3.596c-3.79.333-14.07 1.448-14.07 5.15 0 .674.32 1.285.966 1.838a73.755 73.755 0 01-2.904-.538c-7.43-1.538-9.394-3.342-9.394-4.082v-.001zm0 3.072c10.574 6.927 57.187 6.951 67.78 0v2.916c0 .739-1.963 2.544-9.394 4.082-13.523 2.8-35.475 2.798-48.992 0-7.43-1.538-9.394-3.343-9.394-4.082V48.06zm23.932 25.944c-16.385-1.01-23.932-4.166-23.932-5.88v-2.593c5.065 3.306 17.879 4.545 23.932 4.915v3.558zm0-5.67c-16.125-1-23.932-4.098-23.932-5.88v-2.547c5.056 3.3 17.84 4.543 23.932 4.916v3.51zm19.42 10.233c-6.234.4-12.782.404-18.968.027-.04-.003-.062-.046-.042-.082l1.253-2.303c5.432.27 11.173.27 16.59 0l1.224 2.25c.026.046-.003.105-.056.108zM53.1 68.398h-6.197a1.928 1.928 0 00-1.926 1.925v3.902c-.683-.02-1.314-.035-2.825-.107v-9.923c0-.061.053-.132.133-.132h15.433c.08 0 .132.072.132.132v9.923c-1.47.07-2.014.083-2.824.107v-3.901a1.928 1.928 0 00-1.926-1.926zm-.184 2.11v3.767c-1.935.033-3.527.04-5.83 0v-3.768h5.83zm6.511-7.765a2.266 2.266 0 00-1.71-.79H42.284a2.27 2.27 0 00-1.709.79c-16.64-.97-24.464-4.144-24.464-5.91v-2.787c10.572 6.942 57.228 6.93 67.78 0v2.786c0 .625-1.397 2.053-6.633 3.437-4.502 1.19-10.814 2.065-17.831 2.474zm24.465-2.835v2.548c0 .624-1.394 2.05-6.616 3.432-4.389 1.162-10.504 2.024-17.316 2.447v-3.511c6.082-.372 18.873-1.614 23.932-4.916zm0 8.216c0 .74-1.964 2.544-9.395 4.083-4.118.852-9.098 1.463-14.537 1.798v-3.557c6.051-.37 18.867-1.61 23.932-4.916v2.592zM59.843 21.393h-1.355v-1.32a1.055 1.055 0 10-2.11 0v1.32h-3.93a1.055 1.055 0 100 2.109h7.072v2.271a1.055 1.055 0 102.11 0V23.18c0-.985-.802-1.786-1.787-1.786z"/></g><defs><clipPath id="clip0"><path fill="#fff" transform="translate(14 14)" d="M0 0h72v72H0z"/></clipPath></defs></svg>