<svg width="100" height="100" fill="none" xmlns="http://www.w3.org/2000/svg"><g clip-path="url(#clip0)" fill="#11216C"><path d="M53.547 37.759h6.298c.755 0 1.367-.612 1.367-1.367v-6.31c0-.754-.612-1.366-1.367-1.366h-6.298c-.755 0-1.368.612-1.368 1.367v6.309c0 .755.612 1.367 1.368 1.367zm1.367-6.309h3.564v3.575h-3.564V31.45zm-13.772 6.309h6.299c.755 0 1.367-.612 1.367-1.367v-6.31c0-.754-.612-1.366-1.367-1.366h-6.299c-.755 0-1.367.612-1.367 1.367v6.309c0 .755.612 1.367 1.367 1.367zm1.367-6.309h3.564v3.575H42.51V31.45zm11.038 20.197h6.298c.755 0 1.367-.613 1.367-1.368v-6.308c0-.755-.612-1.367-1.367-1.367h-6.298c-.755 0-1.368.612-1.368 1.367v6.308c0 .755.612 1.367 1.368 1.367zm1.367-6.31h3.564v3.575h-3.564v-3.574zm-13.772 6.31h6.299c.755 0 1.367-.613 1.367-1.368v-6.308c0-.755-.612-1.367-1.367-1.367h-6.299c-.755 0-1.367.612-1.367 1.367v6.308c0 .755.612 1.367 1.367 1.367zm1.367-6.31h3.564v3.575H42.51v-3.574zm11.038 20.197h6.298c.755 0 1.367-.612 1.367-1.367v-6.309c0-.755-.612-1.367-1.367-1.367h-6.298c-.755 0-1.368.612-1.368 1.367v6.309c0 .755.612 1.367 1.368 1.367zm1.367-6.309h3.564V62.8h-3.564v-3.575zm-7.474 6.309c.756 0 1.368-.612 1.368-1.367v-6.309c0-.755-.612-1.367-1.367-1.367h-6.299c-.755 0-1.367.612-1.367 1.367v6.309c0 .755.612 1.367 1.367 1.367h6.299zm-4.93-6.309h3.563V62.8H42.51v-3.575z"/><path d="M78.43 82.266h-1.27V40.969c0-.755-.613-1.367-1.368-1.367h-8.907V22.65c0-.755-.612-1.367-1.367-1.367h-2.913v-4.916c0-.755-.612-1.367-1.367-1.367H39.75c-.755 0-1.367.612-1.367 1.367v4.916H35.47c-.755 0-1.367.612-1.367 1.367v26.313H26.6c-.755 0-1.367.612-1.367 1.368v31.935h-3.665a1.367 1.367 0 100 2.734H78.43a1.367 1.367 0 100-2.734zM41.118 17.734H59.87v3.55H41.117v-3.55zm-13.15 33.964h6.134v30.568h-6.134V51.698zm8.869-27.68H64.15v58.248h-6.806v-9.02c0-.756-.612-1.368-1.367-1.368H45.01c-.755 0-1.367.612-1.367 1.367v9.02h-6.806V24.019zm9.54 58.248v-7.654h8.233v7.654h-8.233zm20.508 0v-39.93h7.54v39.93h-7.54z"/></g><defs><clipPath id="clip0"><path fill="#fff" transform="translate(15 15)" d="M0 0h70v70H0z"/></clipPath></defs></svg>