<svg width="100" height="100" fill="none" xmlns="http://www.w3.org/2000/svg"><g clip-path="url(#clip0)" fill="#11216C"><path d="M69.813 78.625H29.187c-.862 0-1.562-.7-1.562-1.563V23.938c0-.863.7-1.563 1.563-1.563h40.624c.863 0 1.563.7 1.563 1.563v53.124c0 .863-.7 1.563-1.563 1.563zM30.75 75.5h37.5v-50h-37.5v50z"/><path d="M85.438 78.625H69.811c-.862 0-1.562-.7-1.562-1.563v-37.5c0-.862.7-1.562 1.563-1.562h15.624C86.3 38 87 38.7 87 39.563v37.5c0 .862-.7 1.562-1.563 1.562zM71.374 75.5h12.5V41.125h-12.5V75.5zm1.564-50H26.062a1.563 1.563 0 010-3.125h46.876a1.563 1.563 0 010 3.125zm-12.5 9.375H38.561a1.563 1.563 0 010-3.125h21.876a1.563 1.563 0 010 3.125zm0 9.375H38.561a1.563 1.563 0 010-3.125h21.876a1.563 1.563 0 010 3.125zm0 9.375H38.561a1.563 1.563 0 010-3.125h21.876a1.563 1.563 0 010 3.125z"/><path d="M79.188 50.5H74.5a1.563 1.563 0 010-3.125h4.688a1.563 1.563 0 010 3.125zm0 9.375H74.5a1.563 1.563 0 010-3.125h4.688a1.563 1.563 0 010 3.125zm0 9.375H74.5a1.563 1.563 0 010-3.125h4.688a1.563 1.563 0 010 3.125zm-50 9.375H13.563c-.863 0-1.563-.7-1.563-1.563v-37.5C12 38.7 12.7 38 13.563 38h15.624c.863 0 1.563.7 1.563 1.563v37.5c0 .862-.7 1.562-1.563 1.562zM15.124 75.5h12.5V41.125h-12.5V75.5z"/><path d="M22.938 50.5H18.25a1.563 1.563 0 010-3.125h4.688a1.563 1.563 0 010 3.125zm0 9.375H18.25a1.563 1.563 0 010-3.125h4.688a1.563 1.563 0 010 3.125zm0 9.375H18.25a1.563 1.563 0 010-3.125h4.688a1.563 1.563 0 010 3.125zm37.5 9.375c-.863 0-1.563-.7-1.563-1.563V63h-18.75v14.063a1.563 1.563 0 01-3.125 0V61.437c0-.862.7-1.562 1.563-1.562h21.874c.863 0 1.563.7 1.563 1.563v15.624c0 .863-.7 1.563-1.563 1.563z"/><path d="M60.438 69.25H38.561a1.563 1.563 0 010-3.125h21.876a1.563 1.563 0 010 3.125z"/></g><defs><clipPath id="clip0"><path fill="#fff" transform="translate(12 13)" d="M0 0h75v75H0z"/></clipPath></defs></svg>