<svg width="100" height="100" fill="none" xmlns="http://www.w3.org/2000/svg"><path d="M86.688 74.406V43.86a19.944 19.944 0 00-19.922-19.922H32.234A19.944 19.944 0 0012.312 43.86v30.547H9.656v2.656h79.688v-2.656h-2.656zm-5.313-11.953h-1.328v-1.328a2.66 2.66 0 012.656-2.656h1.328v1.328a2.66 2.66 0 01-2.656 2.656zm-58.438 0H21.61v-1.328a2.66 2.66 0 012.657-2.656h1.328v1.328a2.66 2.66 0 01-2.657 2.656zm2.657-13.281v6.64h-1.328a5.3 5.3 0 00-3.985 1.805 5.297 5.297 0 00-3.984-1.804h-1.328V45.187H49.5v10.626h-1.328a5.3 5.3 0 00-3.984 1.804 5.299 5.299 0 00-3.985-1.804h-1.328v-6.641a1.329 1.329 0 00-1.328-1.328H26.922a1.325 1.325 0 00-1.328 1.328zM41.53 29.315a17.288 17.288 0 017.92 13.216h-7.92V29.315zm-2.656 30.482v-1.328h1.328a2.66 2.66 0 012.656 2.656v1.328H41.53a2.66 2.66 0 01-2.656-2.656zm6.64 1.328a2.66 2.66 0 012.657-2.656H49.5v1.328a2.659 2.659 0 01-2.656 2.656h-1.328v-1.328zm6.641-15.938h14.61v10.626h-1.329a5.3 5.3 0 00-3.984 1.804 5.298 5.298 0 00-3.984-1.804h-2.657a1.328 1.328 0 00-1.328 1.328v2.656c0 .933.246 1.85.715 2.656h-2.043V45.187zm3.985 14.61v-1.328h1.328a2.66 2.66 0 012.656 2.656v1.328h-1.328a2.66 2.66 0 01-2.656-2.656zm6.64 1.328a2.66 2.66 0 012.657-2.656h1.328v1.328a2.659 2.659 0 01-2.657 2.656H62.78v-1.328zm6.64-15.938h14.61v10.626h-1.328a5.3 5.3 0 00-3.984 1.804 5.299 5.299 0 00-3.985-1.804h-2.656a1.328 1.328 0 00-1.328 1.328v2.656c0 .933.246 1.85.715 2.656h-2.043V45.187zm3.985 14.61v-1.328h1.328a2.66 2.66 0 012.657 2.656v1.328h-1.329a2.66 2.66 0 01-2.656-2.656zm-6.64-33.203A17.288 17.288 0 0183.98 42.53H69.377a19.943 19.943 0 00-9.948-15.937h7.337zm-17.266 0A17.288 17.288 0 0166.716 42.53H52.11a19.94 19.94 0 00-9.947-15.937H49.5zm-17.266 0c2.28-.003 4.538.449 6.641 1.328v14.61h-13.28v-14.61a17.175 17.175 0 016.64-1.328zm-9.297 2.72v13.217H15.02a17.287 17.287 0 017.918-13.216zM14.97 58.47h1.328a2.66 2.66 0 012.656 2.656v1.328h-1.328a2.66 2.66 0 01-2.656-2.656V58.47zm0 15.937V65.11h10.625v9.297H14.969zm13.281 0V50.5h7.969v23.906h-7.97zm10.625-9.297H49.5v9.297H38.875V65.11zm13.281 0h14.61v9.297h-14.61V65.11zm17.266 0h14.61v9.297h-14.61V65.11z" fill="#11216C"/></svg>